# Blender v2.83.1 OBJ File: 'intro17.blend'
# www.blender.org
mtllib prop-ufo.mtl
o UFO_Circle.002
v 0.660644 3.621520 5.148649
v -0.263836 3.410688 4.134363
v -1.556847 3.528544 3.642308
v -2.871929 3.943510 3.804328
v -3.856707 4.544395 4.577010
v -4.247309 5.170193 5.753315
v -3.939075 5.653222 7.018054
v -3.014596 5.864054 8.032339
v -1.721585 5.746197 8.524395
v -0.406503 5.331232 8.362375
v 0.578275 4.730347 7.589694
v 0.968878 4.104549 6.413388
v -0.280488 4.418156 5.415163
v -0.790866 4.301762 4.855206
v -1.504699 4.366827 4.583557
v -2.230716 4.595917 4.673003
v -2.774382 4.927648 5.099578
v -2.990022 5.273132 5.748981
v -2.819855 5.539797 6.447205
v -2.309478 5.656191 7.007162
v -1.595645 5.591126 7.278811
v -0.869628 5.362036 7.189365
v -0.325961 5.030306 6.762791
v -0.110321 4.684821 6.113388
v -0.262973 4.485350 5.385231
v -0.773350 4.368956 4.825274
v -1.487183 4.434021 4.553626
v -2.213201 4.663111 4.643072
v -2.756866 4.994842 5.069647
v -2.972507 5.340326 5.719049
v -2.802340 5.606992 6.417274
v -2.291962 5.723386 6.977230
v -1.578130 5.658320 7.248879
v -0.852113 5.429231 7.159433
v -0.308446 5.097500 6.732859
v -0.092806 4.752016 6.083456
v -0.348903 4.523306 5.420155
v -0.824739 4.414789 4.898096
v -1.490261 4.475451 4.644831
v -2.167142 4.689036 4.728224
v -2.674014 4.998316 5.125929
v -2.875059 5.320418 5.731381
v -2.716409 5.569036 6.382350
v -2.240574 5.677553 6.904409
v -1.575052 5.616891 7.157674
v -0.898171 5.403306 7.074281
v -0.391299 5.094026 6.676577
v -0.190253 4.771924 6.071125
v -0.447446 5.091346 5.300513
v -0.834386 5.003103 4.875985
v -1.375576 5.052432 4.670035
v -1.926002 5.226115 4.737849
v -2.338180 5.477615 5.061255
v -2.501667 5.739542 5.553596
v -2.372655 5.941713 6.082952
v -1.985715 6.029957 6.507480
v -1.444526 5.980628 6.713430
v -0.894100 5.806945 6.645617
v -0.481922 5.555445 6.322211
v -0.318435 5.293518 5.829869
v -0.985110 5.711274 5.402594
v -1.119990 5.680513 5.254611
v -1.308638 5.697709 5.182822
v -1.500505 5.758251 5.206460
v -1.644182 5.845919 5.319193
v -1.701170 5.937222 5.490813
v -1.656200 6.007694 5.675336
v -1.521320 6.038455 5.823318
v -1.332672 6.021259 5.895108
v -1.140805 5.960717 5.871469
v -0.997128 5.873049 5.758737
v -0.940140 5.781746 5.587116
v -1.304321 5.922147 5.511052
v -0.468408 5.093740 8.468165
v -1.783490 5.508706 8.630184
v -3.076501 5.626563 8.138128
v -4.000980 5.415730 7.123843
v -4.309215 4.932702 5.859105
v -3.918612 4.306904 4.682799
v -2.933835 3.706019 3.910117
v -1.618753 3.291053 3.748097
v -0.325741 3.173197 4.240153
v 0.598738 3.384029 5.254438
v 0.516370 4.492856 7.695483
v 0.906973 3.867058 6.519178
v -1.184795 4.690506 7.143718
v -1.735622 4.864316 7.211580
v -2.277204 4.913680 7.005481
v -2.664425 4.825372 6.580644
v -2.793530 4.623055 6.050904
v -2.629925 4.360937 5.558205
v -2.217447 4.109254 5.234564
v -1.666621 3.935444 5.166702
v -1.125039 3.886080 5.372801
v -0.737817 3.974387 5.797638
v -0.772318 4.438823 6.820077
v -0.608713 4.176706 6.327378
v -1.280624 4.322872 7.307479
v -1.831451 4.496681 7.375342
v -2.373033 4.546046 7.169242
v -2.760254 4.457738 6.744406
v -2.889359 4.255420 6.214666
v -2.725754 3.993303 5.721967
v -2.313276 3.741620 5.398326
v -1.762450 3.567810 5.330463
v -1.220868 3.518445 5.536562
v -0.833646 3.606753 5.961399
v -0.868147 4.071189 6.983839
v -0.704542 3.809072 6.491140
v -1.507082 4.195405 6.888807
v -1.816319 4.292982 6.926905
v -2.120366 4.320695 6.811200
v -2.337754 4.271119 6.572694
v -2.410233 4.157537 6.275296
v -2.318385 4.010383 5.998692
v -2.086818 3.869087 5.816998
v -1.777582 3.771509 5.778900
v -1.473535 3.743796 5.894605
v -1.256147 3.793372 6.133111
v -1.275516 4.054109 6.707113
v -1.183667 3.906955 6.430510
v -1.382948 4.671629 6.676674
v -1.692184 4.769207 6.714772
v -1.996231 4.796920 6.599067
v -2.213619 4.747344 6.360561
v -2.286099 4.633761 6.063163
v -2.194250 4.486608 5.786559
v -1.962684 4.345312 5.604866
v -1.653447 4.247734 5.566768
v -1.349400 4.220020 5.682473
v -1.132012 4.269597 5.920978
v -1.151381 4.530333 6.494981
v -1.059532 4.383179 6.218377
v -1.672816 4.508470 6.140770
vt 0.000000 0.000000
vt 0.000000 0.000000
vt 0.000000 0.000000
vt 0.000000 0.000000
vt 0.000000 0.000000
vt 0.000000 0.000000
vt 0.000000 0.000000
vt 0.000000 0.000000
vt 0.000000 0.000000
vt 0.000000 0.000000
vt 0.000000 0.000000
vt 0.000000 0.000000
vt 0.000000 0.000000
vt 0.000000 0.000000
vt 0.000000 0.000000
vt 0.000000 0.000000
vt 0.000000 0.000000
vt 0.000000 0.000000
vt 0.000000 0.000000
vt 0.000000 0.000000
vt 0.000000 0.000000
vt 0.000000 0.000000
vt 0.000000 0.000000
vt 0.000000 0.000000
vt 0.000000 0.000000
vt 0.000000 0.000000
vt 0.000000 0.000000
vt 0.000000 0.000000
vt 0.000000 0.000000
vt 0.000000 0.000000
vt 0.000000 0.000000
vt 0.000000 0.000000
vt 0.000000 0.000000
vt 0.000000 0.000000
vt 0.000000 0.000000
vt 0.000000 0.000000
vt 0.000000 0.000000
vt 0.000000 0.000000
vt 0.000000 0.000000
vt 0.000000 0.000000
vt 0.000000 0.000000
vt 0.000000 0.000000
vt 0.000000 0.000000
vt 0.000000 0.000000
vt 0.000000 0.000000
vt 0.000000 0.000000
vt 0.000000 0.000000
vt 0.000000 0.000000
vt 0.000000 0.000000
vt 0.000000 0.000000
vt 0.000000 0.000000
vt 0.000000 0.000000
vt 0.000000 0.000000
vt 0.000000 0.000000
vt 0.000000 0.000000
vt 0.000000 0.000000
vt 0.000000 0.000000
vt 0.000000 0.000000
vt 0.000000 0.000000
vt 0.000000 0.000000
vt 0.000000 0.000000
vt 0.000000 0.000000
vt 0.000000 0.000000
vt 0.000000 0.000000
vt 0.000000 0.000000
vt 0.000000 0.000000
vt 0.000000 0.000000
vt 0.000000 0.000000
vt 0.000000 0.000000
vt 0.000000 0.000000
vt 0.000000 0.000000
vt 0.000000 0.000000
vt 0.000000 0.000000
vt 0.000000 0.000000
vt 0.000000 0.000000
vt 0.000000 0.000000
vt 0.000000 0.000000
vt 0.000000 0.000000
vt 0.000000 0.000000
vt 0.000000 0.000000
vt 0.000000 0.000000
vt 0.000000 0.000000
vt 0.000000 0.000000
vt 0.000000 0.000000
vt 0.000000 0.000000
vt 0.000000 0.000000
vt 0.000000 0.000000
vt 0.000000 0.000000
vt 0.000000 0.000000
vt 0.000000 0.000000
vt 0.000000 0.000000
vt 0.000000 0.000000
vt 0.000000 0.000000
vt 0.000000 0.000000
vt 0.000000 0.000000
vt 0.000000 0.000000
vt 0.000000 0.000000
vt 0.000000 0.000000
vt 0.000000 0.000000
vt 0.000000 0.000000
vt 0.000000 0.000000
vt 0.000000 0.000000
vt 0.000000 0.000000
vt 0.000000 0.000000
vt 0.000000 0.000000
vt 0.000000 0.000000
vt 0.000000 0.000000
vt 0.000000 0.000000
vt 0.000000 0.000000
vt 0.000000 0.000000
vt 0.000000 0.000000
vt 0.000000 0.000000
vt 0.000000 0.000000
vt 0.000000 0.000000
vt 0.000000 0.000000
vt 0.000000 0.000000
vt 0.000000 0.000000
vt 0.000000 0.000000
vt 0.000000 0.000000
vt 0.000000 0.000000
vt 0.000000 0.000000
vt 0.000000 0.000000
vt 0.000000 0.000000
vt 0.000000 0.000000
vt 0.000000 0.000000
vt 0.000000 0.000000
vt 0.000000 0.000000
vt 0.000000 0.000000
vt 0.000000 0.000000
vt 0.000000 0.000000
vt 0.000000 0.000000
vt 0.000000 0.000000
vt 0.000000 0.000000
vt 0.000000 0.000000
vn -0.0031 0.9796 -0.2008
vn 0.0105 0.7958 -0.6055
vn 0.5127 0.8169 -0.2643
vn 0.4429 0.7075 -0.5507
vn 0.1314 0.9853 -0.1094
vn -0.0729 0.8702 -0.4872
vn 0.5177 0.7496 -0.4125
vn 0.3083 0.7018 -0.6421
vn 0.2897 0.9529 -0.0893
vn -0.0779 0.9375 -0.3391
vn 0.1501 0.7342 -0.6622
vn 0.4292 0.8913 -0.1461
vn -0.9471 0.2989 0.1167
vn -0.2220 -0.3479 -0.9109
vn 0.6658 0.1518 0.7305
vn -0.7092 0.4328 0.5565
vn -0.6658 -0.1518 -0.7305
vn 0.9312 -0.0849 0.3544
vn 0.7092 -0.4328 -0.5565
vn -0.2813 0.4507 0.8472
vn -0.9312 0.0849 -0.3544
vn 0.9471 -0.2989 -0.1167
vn 0.2813 -0.4507 -0.8472
vn 0.2220 0.3479 0.9109
vn -0.2316 -0.8886 0.3958
vn 0.2316 0.8886 -0.3958
vn -0.1559 0.7862 0.5979
vn -0.7439 0.4552 -0.4892
vn 0.9556 0.1080 -0.2742
vn 0.3532 -0.0294 -0.9351
vn 0.2995 0.6932 0.6556
vn -0.7583 0.6488 -0.0630
vn -0.1022 0.0637 -0.9927
vn 0.7011 0.5158 0.4924
vn -0.5431 0.7700 0.3349
vn -0.5038 0.2411 -0.8295
vn 0.9412 0.3016 0.1521
vn 0.7404 -0.0131 -0.6721
vn -0.1368 0.9873 -0.0806
vn -0.1159 0.7070 -0.6976
vn 0.6497 0.7391 -0.1775
vn 0.5433 0.5724 -0.6142
vn 0.0684 0.9959 0.0588
vn -0.2432 0.8205 -0.5173
vn 0.6574 0.6366 -0.4033
vn 0.3381 0.5638 -0.7536
vn 0.3097 0.9466 0.0893
vn -0.2508 0.9231 -0.2914
vn 0.0968 0.6130 -0.7841
vn 0.5225 0.8526 0.0029
vn 0.0976 0.9529 -0.2871
vn 0.1056 0.8457 -0.5231
vn 0.3985 0.8580 -0.3241
vn 0.3578 0.7942 -0.4912
vn 0.1761 0.9562 -0.2338
vn 0.0569 0.8891 -0.4541
vn 0.4014 0.8188 -0.4105
vn 0.2793 0.7909 -0.5445
vn 0.2684 0.9374 -0.2221
vn 0.0540 0.9284 -0.3677
vn 0.1870 0.8098 -0.5562
vn 0.3498 0.9014 -0.2552
usemtl Disc
s off
f 8/1/1 20/2/1 19/3/1 7/4/1
f 5/5/2 17/6/2 16/7/2 4/8/2
f 12/9/3 24/10/3 23/11/3 11/12/3
f 2/13/4 14/14/4 13/15/4 1/16/4
f 9/17/5 21/18/5 20/2/5 8/1/5
f 6/19/6 18/20/6 17/6/6 5/5/6
f 1/16/7 13/15/7 24/10/7 12/9/7
f 3/21/8 15/22/8 14/14/8 2/13/8
f 10/23/9 22/24/9 21/18/9 9/17/9
f 7/4/10 19/3/10 18/20/10 6/19/10
f 4/8/11 16/7/11 15/22/11 3/21/11
f 11/12/12 23/11/12 22/24/12 10/23/12
f 6/19/13 78/25/13 77/26/13 7/4/13
f 3/21/14 81/27/14 80/28/14 4/8/14
f 10/23/15 74/29/15 84/30/15 11/12/15
f 7/4/16 77/26/16 76/31/16 8/1/16
f 4/8/17 80/28/17 79/32/17 5/5/17
f 11/12/18 84/30/18 85/33/18 12/9/18
f 1/16/19 83/34/19 82/35/19 2/13/19
f 8/1/20 76/31/20 75/36/20 9/17/20
f 5/5/21 79/32/21 78/25/21 6/19/21
f 12/9/22 85/33/22 83/34/22 1/16/22
f 2/13/23 82/35/23 81/27/23 3/21/23
f 9/17/24 75/36/24 74/29/24 10/23/24
f 78/25/25 90/37/25 89/38/25 77/26/25
f 75/36/25 87/39/25 86/40/25 74/29/25
f 81/27/25 93/41/25 92/42/25 80/28/25
f 85/33/25 97/43/25 95/44/25 83/34/25
f 79/32/25 91/45/25 90/37/25 78/25/25
f 76/31/25 88/46/25 87/39/25 75/36/25
f 82/35/25 94/47/25 93/41/25 81/27/25
f 84/30/25 96/48/25 97/43/25 85/33/25
f 77/26/25 89/38/25 88/46/25 76/31/25
f 83/34/25 95/44/25 94/47/25 82/35/25
f 74/29/25 86/40/25 96/48/25 84/30/25
f 80/28/25 92/42/25 91/45/25 79/32/25
f 90/37/13 102/49/13 101/50/13 89/38/13
f 87/39/24 99/51/24 98/52/24 86/40/24
f 94/47/23 106/53/23 105/54/23 93/41/23
f 97/43/22 109/55/22 107/56/22 95/44/22
f 91/45/21 103/57/21 102/49/21 90/37/21
f 88/46/20 100/58/20 99/51/20 87/39/20
f 95/44/19 107/56/19 106/53/19 94/47/19
f 96/48/18 108/59/18 109/55/18 97/43/18
f 92/42/17 104/60/17 103/57/17 91/45/17
f 89/38/16 101/50/16 100/58/16 88/46/16
f 86/40/15 98/52/15 108/59/15 96/48/15
f 93/41/14 105/54/14 104/60/14 92/42/14
f 105/54/25 117/61/25 116/62/25 104/60/25
f 102/49/25 114/63/25 113/64/25 101/50/25
f 99/51/25 111/65/25 110/66/25 98/52/25
f 106/53/25 118/67/25 117/61/25 105/54/25
f 109/55/25 121/68/25 119/69/25 107/56/25
f 103/57/25 115/70/25 114/63/25 102/49/25
f 100/58/25 112/71/25 111/65/25 99/51/25
f 107/56/25 119/69/25 118/67/25 106/53/25
f 108/59/25 120/72/25 121/68/25 109/55/25
f 104/60/25 116/62/25 115/70/25 103/57/25
f 101/50/25 113/64/25 112/71/25 100/58/25
f 98/52/25 110/66/25 120/72/25 108/59/25
f 110/66/17 122/73/17 132/74/17 120/72/17
f 117/61/24 129/75/24 128/76/24 116/62/24
f 114/63/22 126/77/22 125/78/22 113/64/22
f 111/65/14 123/79/14 122/73/14 110/66/14
f 118/67/20 130/80/20 129/75/20 117/61/20
f 121/68/13 133/81/13 131/82/13 119/69/13
f 115/70/18 127/83/18 126/77/18 114/63/18
f 112/71/23 124/84/23 123/79/23 111/65/23
f 119/69/16 131/82/16 130/80/16 118/67/16
f 120/72/21 132/74/21 133/81/21 121/68/21
f 116/62/15 128/76/15 127/83/15 115/70/15
f 113/64/19 125/78/19 124/84/19 112/71/19
f 122/73/25 134/85/25 132/74/25
f 129/75/25 134/85/25 128/76/25
f 126/77/25 134/85/25 125/78/25
f 123/79/25 134/85/25 122/73/25
f 130/80/25 134/85/25 129/75/25
f 133/81/25 134/85/25 131/82/25
f 127/83/25 134/85/25 126/77/25
f 124/84/25 134/85/25 123/79/25
f 131/82/25 134/85/25 130/80/25
f 132/74/25 134/85/25 133/81/25
f 128/76/25 134/85/25 127/83/25
f 125/78/25 134/85/25 124/84/25
usemtl Rim
f 18/20/21 30/86/21 29/87/21 17/6/21
f 13/15/22 25/88/22 36/89/22 24/10/22
f 15/22/23 27/90/23 26/91/23 14/14/23
f 22/24/24 34/92/24 33/93/24 21/18/24
f 19/3/13 31/94/13 30/86/13 18/20/13
f 16/7/14 28/95/14 27/90/14 15/22/14
f 23/11/15 35/96/15 34/92/15 22/24/15
f 20/2/16 32/97/16 31/94/16 19/3/16
f 17/6/17 29/87/17 28/95/17 16/7/17
f 24/10/18 36/89/18 35/96/18 23/11/18
f 14/14/19 26/91/19 25/88/19 13/15/19
f 21/18/20 33/93/20 32/97/20 20/2/20
f 30/86/26 42/98/26 41/99/26 29/87/26
f 25/88/26 37/100/26 48/101/26 36/89/26
f 27/90/26 39/102/26 38/103/26 26/91/26
f 34/92/26 46/104/26 45/105/26 33/93/26
f 31/94/26 43/106/26 42/98/26 30/86/26
f 28/95/26 40/107/26 39/102/26 27/90/26
f 35/96/26 47/108/26 46/104/26 34/92/26
f 32/97/26 44/109/26 43/106/26 31/94/26
f 29/87/26 41/99/26 40/107/26 28/95/26
f 36/89/26 48/101/26 47/108/26 35/96/26
f 26/91/26 38/103/26 37/100/26 25/88/26
f 33/93/26 45/105/26 44/109/26 32/97/26
usemtl Glass
f 45/105/27 57/110/27 56/111/27 44/109/27
f 42/98/28 54/112/28 53/113/28 41/99/28
f 37/100/29 49/114/29 60/115/29 48/101/29
f 39/102/30 51/116/30 50/117/30 38/103/30
f 46/104/31 58/118/31 57/110/31 45/105/31
f 43/106/32 55/119/32 54/112/32 42/98/32
f 40/107/33 52/120/33 51/116/33 39/102/33
f 47/108/34 59/121/34 58/118/34 46/104/34
f 44/109/35 56/111/35 55/119/35 43/106/35
f 41/99/36 53/113/36 52/120/36 40/107/36
f 48/101/37 60/115/37 59/121/37 47/108/37
f 38/103/38 50/117/38 49/114/38 37/100/38
f 56/111/39 68/122/39 67/123/39 55/119/39
f 53/113/40 65/124/40 64/125/40 52/120/40
f 60/115/41 72/126/41 71/127/41 59/121/41
f 50/117/42 62/128/42 61/129/42 49/114/42
f 57/110/43 69/130/43 68/122/43 56/111/43
f 54/112/44 66/131/44 65/124/44 53/113/44
f 49/114/45 61/129/45 72/126/45 60/115/45
f 51/116/46 63/132/46 62/128/46 50/117/46
f 58/118/47 70/133/47 69/130/47 57/110/47
f 55/119/48 67/123/48 66/131/48 54/112/48
f 52/120/49 64/125/49 63/132/49 51/116/49
f 59/121/50 71/127/50 70/133/50 58/118/50
f 68/122/51 73/134/51 67/123/51
f 65/124/52 73/134/52 64/125/52
f 72/126/53 73/134/53 71/127/53
f 62/128/54 73/134/54 61/129/54
f 69/130/55 73/134/55 68/122/55
f 66/131/56 73/134/56 65/124/56
f 61/129/57 73/134/57 72/126/57
f 63/132/58 73/134/58 62/128/58
f 70/133/59 73/134/59 69/130/59
f 67/123/60 73/134/60 66/131/60
f 64/125/61 73/134/61 63/132/61
f 71/127/62 73/134/62 70/133/62
