# Blender v2.83.1 OBJ File: 'exclamation-mark.blend'
# www.blender.org
mtllib exclamation-mark.mtl
o Cube
v 0.446533 1.195495 -1.129745
v 1.129745 1.195495 -0.446533
v 1.129745 0.512283 -1.129745
v 0.446533 -1.063995 -1.129745
v 1.129745 -0.380784 -1.129745
v 1.129745 -1.063995 -0.446533
v 1.129745 1.195495 0.446533
v 0.446533 1.195495 1.129745
v 1.129745 0.512283 1.129745
v 1.129745 -0.380784 1.129745
v 0.446533 -1.063995 1.129745
v 1.129745 -1.063995 0.446533
v -1.129745 0.512283 -1.129745
v -1.129745 1.195495 -0.446533
v -0.446533 1.195495 -1.129745
v -1.129745 -0.380784 -1.129745
v -0.446533 -1.063995 -1.129745
v -1.129745 -1.063995 -0.446533
v -1.129745 0.512283 1.129745
v -0.446533 1.195495 1.129745
v -1.129745 1.195495 0.446533
v -0.446533 -1.063995 1.129745
v -1.129745 -0.380784 1.129745
v -1.129745 -1.063995 0.446533
v 0.918712 10.997576 -1.201856
v 1.601924 10.997576 -0.518644
v 1.551650 10.316424 -1.184997
v 0.316788 2.842153 -1.000000
v 1.050273 3.523304 -1.016859
v 1.000000 2.842153 -0.316788
v 1.601924 10.997576 0.518644
v 0.918712 10.997576 1.201856
v 1.551650 10.316424 1.184997
v 1.050273 3.523304 1.016859
v 0.316788 2.842153 1.000000
v 1.000000 2.842153 0.316788
v -1.551650 10.316424 -1.184997
v -1.601924 10.997576 -0.518644
v -0.918712 10.997576 -1.201856
v -1.050273 3.523304 -1.016859
v -0.316788 2.842153 -1.000000
v -1.000000 2.842153 -0.316788
v -1.551650 10.316424 1.184997
v -0.918712 10.997576 1.201856
v -1.601924 10.997576 0.518644
v -0.316788 2.842153 1.000000
v -1.050273 3.523304 1.016859
v -1.000000 2.842153 0.316788
vt 0.125000 0.575594
vt 0.200594 0.500000
vt 0.299406 0.500000
vt 0.375000 0.575594
vt 0.375000 0.674406
vt 0.299406 0.750000
vt 0.200594 0.750000
vt 0.125000 0.674406
vt 0.375000 0.075594
vt 0.450594 0.000000
vt 0.549406 0.000000
vt 0.625000 0.075594
vt 0.625000 0.174406
vt 0.549406 0.250000
vt 0.450594 0.250000
vt 0.375000 0.174406
vt 0.375000 0.335401
vt 0.395880 0.250000
vt 0.604120 0.250000
vt 0.625000 0.303312
vt 0.625000 0.446688
vt 0.604120 0.500000
vt 0.395880 0.500000
vt 0.375000 0.414599
vt 0.375000 0.825594
vt 0.450594 0.750000
vt 0.549406 0.750000
vt 0.625000 0.825594
vt 0.625000 0.924406
vt 0.549406 1.000000
vt 0.450594 1.000000
vt 0.375000 0.924406
vt 0.625000 0.575594
vt 0.700594 0.500000
vt 0.799406 0.500000
vt 0.875000 0.575594
vt 0.875000 0.674406
vt 0.799406 0.750000
vt 0.700594 0.750000
vt 0.625000 0.674406
vt 0.450594 0.500000
vt 0.549406 0.500000
vt 0.125000 0.585401
vt 0.210401 0.500000
vt 0.289599 0.500000
vt 0.375000 0.585401
vt 0.375000 0.664599
vt 0.289599 0.750000
vt 0.210401 0.750000
vt 0.125000 0.664599
vt 0.375000 0.085401
vt 0.395880 0.000000
vt 0.604120 0.000000
vt 0.625000 0.071058
vt 0.625000 0.178942
vt 0.375000 0.164599
vt 0.375000 0.835401
vt 0.395880 0.750000
vt 0.604120 0.750000
vt 0.625000 0.803312
vt 0.625000 0.946688
vt 0.604120 1.000000
vt 0.395880 1.000000
vt 0.375000 0.914599
vt 0.625000 0.571058
vt 0.678312 0.500000
vt 0.821688 0.500000
vt 0.875000 0.571058
vt 0.875000 0.678942
vt 0.821688 0.750000
vt 0.678312 0.750000
vt 0.625000 0.678942
vt 0.625000 0.424406
vt 0.625000 0.500000
vt 0.375000 0.500000
vt 0.625000 0.750000
vt 0.375000 0.750000
vt 0.625000 0.250000
vt 0.625000 0.325594
vt 0.375000 0.250000
vt 0.625000 0.000000
vt 0.125000 0.750000
vt 0.624485 0.500000
vt 0.375000 0.500000
vt 0.623464 0.750000
vt 0.375000 0.750000
vt 0.624485 0.250000
vt 0.375000 0.250000
vt 0.623464 0.000000
vt 0.125000 0.750000
vt 0.375000 0.325594
vt 0.375000 0.424406
vn 0.0000 -1.0000 0.0000
vn -1.0000 0.0000 0.0000
vn -0.0000 -0.0247 -0.9997
vn -0.0000 0.0000 1.0000
vn 0.0000 1.0000 0.0000
vn 1.0000 0.0000 0.0000
vn -0.9973 -0.0736 0.0000
vn 0.0000 -0.0247 0.9997
vn 0.9973 -0.0736 -0.0000
vn 0.5774 0.5774 -0.5774
vn 0.5774 -0.5774 -0.5774
vn 0.5774 0.5774 0.5774
vn 0.5774 -0.5774 0.5774
vn -0.5774 0.5774 -0.5774
vn -0.5774 -0.5774 -0.5774
vn -0.5774 0.5774 0.5774
vn -0.5774 -0.5774 0.5774
vn 0.5957 0.5388 -0.5957
vn 0.5578 -0.6145 -0.5578
vn 0.5957 0.5388 0.5957
vn 0.5578 -0.6145 0.5578
vn -0.5957 0.5388 -0.5957
vn -0.5578 -0.6145 -0.5578
vn -0.5957 0.5388 0.5957
vn -0.5578 -0.6145 0.5578
vn 0.0000 0.0000 -1.0000
usemtl Material
s off
f 18/1/1 17/2/1 4/3/1 6/4/1 12/5/1 11/6/1 22/7/1 24/8/1
f 24/9/2 23/10/2 19/11/2 21/12/2 14/13/2 13/14/2 16/15/2 18/16/2
f 41/17/3 40/18/3 37/19/3 39/20/3 25/21/3 27/22/3 29/23/3 28/24/3
f 11/25/4 10/26/4 9/27/4 8/28/4 20/29/4 19/30/4 23/31/4 22/32/4
f 2/33/5 1/34/5 15/35/5 14/36/5 21/37/5 20/38/5 8/39/5 7/40/5
f 6/4/6 5/41/6 3/42/6 2/33/6 7/40/6 9/27/6 10/26/6 12/5/6
f 42/43/1 41/44/1 28/45/1 30/46/1 36/47/1 35/48/1 46/49/1 48/50/1
f 48/51/7 47/52/7 43/53/7 45/54/7 38/55/7 37/19/7 40/18/7 42/56/7
f 35/57/8 34/58/8 33/59/8 32/60/8 44/61/8 43/62/8 47/63/8 46/64/8
f 26/65/5 25/66/5 39/67/5 38/68/5 45/69/5 44/70/5 32/71/5 31/72/5
f 30/46/9 29/23/9 27/22/9 26/65/9 31/72/9 33/59/9 34/58/9 36/47/9
f 1/73/10 2/74/10 3/42/10
f 4/3/11 5/75/11 6/4/11
f 7/40/12 8/76/12 9/27/12
f 10/26/13 11/77/13 12/5/13
f 13/14/14 14/78/14 15/79/14
f 16/15/15 17/80/15 18/16/15
f 19/11/16 20/81/16 21/12/16
f 22/7/17 23/82/17 24/8/17
f 25/21/18 26/83/18 27/22/18
f 28/45/19 29/84/19 30/46/19
f 31/72/20 32/85/20 33/59/20
f 34/58/21 35/86/21 36/47/21
f 37/19/22 38/87/22 39/20/22
f 40/18/23 41/88/23 42/56/23
f 43/53/24 44/89/24 45/54/24
f 46/49/25 47/90/25 48/50/25
f 17/91/26 16/15/26 13/14/26 15/79/26 1/73/26 3/42/26 5/41/26 4/92/26
